<svg width="36" height="29" viewBox="0 0 36 29" fill="none" xmlns="http://www.w3.org/2000/svg">
<path d="M9.69248 14.5C9.69248 14.8496 9.83836 15.1849 10.098 15.4321C10.3577 15.6793 10.7099 15.8182 11.0771 15.8182H23.5389V24.3864C23.5389 27.0227 20.6147 29 18.0003 29H4.84624C3.56136 28.9987 2.3295 28.5122 1.42095 27.6473C0.512401 26.7823 0.00137445 25.6096 0 24.3864V4.61364C0.00137445 3.39042 0.512401 2.21769 1.42095 1.35275C2.3295 0.487804 3.56136 0.00130653 4.84624 -1.90735e-06H18.6926C19.9775 0.00130653 21.2094 0.487804 22.1179 1.35275C23.0265 2.21769 23.5375 3.39042 23.5389 4.61364V13.1818H11.0771C10.7099 13.1818 10.3577 13.3207 10.098 13.5679C9.83836 13.8151 9.69248 14.1504 9.69248 14.5ZM35.5948 15.4318L28.6716 22.0227C28.4098 22.2595 28.0612 22.3895 27.7001 22.3851C27.3391 22.3807 26.9941 22.2422 26.7388 21.9991C26.4835 21.7561 26.338 21.4277 26.3333 21.0839C26.3287 20.7402 26.4653 20.4083 26.714 20.1591L31.273 15.8182H23.5389V13.1818H31.273L26.714 8.84088C26.58 8.71969 26.4729 8.5742 26.3989 8.41297C26.3249 8.25173 26.2856 8.07804 26.2832 7.9021C26.2808 7.72617 26.3155 7.55157 26.3851 7.38859C26.4548 7.22561 26.558 7.07754 26.6886 6.95313C26.8193 6.82872 26.9749 6.73047 27.1461 6.66418C27.3173 6.59789 27.5007 6.5649 27.6855 6.56715C27.8703 6.56941 28.0527 6.60686 28.2221 6.6773C28.3914 6.74774 28.5443 6.84974 28.6716 6.9773L35.5948 13.5682C35.8542 13.8154 36 14.1505 36 14.5C36 14.8495 35.8542 15.1846 35.5948 15.4318Z" fill="black"/>
</svg>
